<svg xmlns="http://www.w3.org/2000/svg" viewBox="0 0 322 96">
  <!-- Wordmark outlines: Inter Tight ExtraBold 800 from google/fonts
       revision 389b770410cc0b7c21c85673bfa2077420fe7f65. -->
  <path
    fill="#0AA8E8"
    d="M22 21h20.067L29 49h11L27.897 76H8zm42 0c6.9 0 7.4.9 10.3 7.6L65.25 61H88l-4 15H34.111L53 42H41l9.13-21z"
  />
  <g fill="currentColor" transform="translate(124 68) scale(.0244140625 -.0244140625)">
    <path transform="translate(0.000 0)" d="M443 1490L443 0L84 0L84 1490Z" />
    <path transform="translate(527.200 0)" d="M440 637L440 0L84 0L84 1118L436 1118L436 912L445 912Q483 1014 566.5 1073Q650 1132 774 1132Q892 1132 979 1079.5Q1066 1027 1114 932.5Q1162 838 1162 712L1162 0L806 0L806 642Q806 735 759 787.5Q712 840 627 840Q571 840 529 816Q487 792 463.5 746.5Q440 701 440 637Z" />
    <path transform="translate(1773.600 0)" d="M724 1118L724 855L7 855L7 1118ZM157 0L157 1174Q157 1304 205 1389.5Q253 1475 339.5 1517.5Q426 1560 540 1560Q614 1560 680 1548.5Q746 1537 777 1528L721 1268Q701 1274 673.5 1278.5Q646 1283 620 1283Q558 1283 534.5 1255Q511 1227 511 1179L511 0Z" />
    <path transform="translate(2492.800 0)" d="M607 -21Q431 -21 304 48.5Q177 118 109.5 247Q42 376 42 555Q42 728 110 857.5Q178 987 302 1059.5Q426 1132 594 1132Q713 1132 812.5 1094.5Q912 1057 984.5 984.5Q1057 912 1096.5 806Q1136 700 1136 561L1136 473L165 473L165 678L967 678L801 630Q801 707 778 761.5Q755 816 710 846Q665 876 598 876Q531 876 485 846Q439 816 415 762.5Q391 709 391 636L391 489Q391 411 418.5 354Q446 297 496.5 266.5Q547 236 613 236Q659 236 697 249Q735 262 762 287.5Q789 313 803 349L1129 340Q1109 230 1041 149Q973 68 863 23.5Q753 -21 607 -21Z" />
    <path transform="translate(3666.400 0)" d="M84 0L84 1118L429 1118L429 913L441 913Q471 1025 540.5 1078.5Q610 1132 701 1132Q726 1132 752.5 1129Q779 1126 801 1119L801 811Q775 820 734 824.5Q693 829 661 829Q598 829 547.5 801Q497 773 468.5 723Q440 673 440 607L440 0Z" />
    <path transform="translate(4471.600 0)" d="M84 0L84 1490L443 1490L443 293L1064 293L1064 0Z" />
    <path transform="translate(5580.400 0)" d="M400 -20Q293 -20 209.5 16.5Q126 53 79 126Q32 199 32 310Q32 403 64.5 467Q97 531 154.5 571Q212 611 287 632.5Q362 654 447 660Q542 669 600 678Q658 687 684.5 706Q711 725 711 759L711 764Q711 819 673 850Q635 881 569 881Q498 881 455.5 850Q413 819 401 766L74 777Q88 879 148.5 959.5Q209 1040 315.5 1086Q422 1132 573 1132Q679 1132 769 1107Q859 1082 926 1034Q993 986 1030 917Q1067 848 1067 760L1067 0L732 0L732 157L724 157Q693 99 647 60Q601 21 539.5 0.5Q478 -20 400 -20ZM509 214Q566 214 612.5 237.5Q659 261 686.5 302Q714 343 714 398L714 503Q699 495 677.5 488.5Q656 482 630 476Q604 470 577.5 466Q551 462 527 458Q476 451 440.5 433.5Q405 416 387 390Q369 364 369 327Q369 272 408 243Q447 214 509 214Z" />
    <path transform="translate(6731.600 0)" d="M761 -16Q677 -16 615 12Q553 40 511.5 85Q470 130 448 182L436 182L436 0L84 0L84 1490L440 1490L440 926L448 926Q469 977 509.5 1024.5Q550 1072 612.5 1102Q675 1132 764 1132Q881 1132 982 1070.5Q1083 1009 1145.5 882Q1208 755 1208 558Q1208 368 1148 240Q1088 112 986.5 48Q885 -16 761 -16ZM638 261Q704 261 749.5 298Q795 335 818.5 402Q842 469 842 558Q842 648 818.5 714.5Q795 781 750 818Q705 855 638 855Q573 855 527 819Q481 783 456.5 716.5Q432 650 432 558Q432 468 456.5 401.5Q481 335 527 298Q573 261 638 261Z" />
  </g>
  <g fill="#0AA8E8" transform="translate(124 68) scale(.0244140625 -.0244140625)">
    <path d="M84 1490h359L84 1340z" />
    <path transform="translate(4471.6 0)" d="M443 0h621v210z" />
  </g>
</svg>
